<mxfile host="app.diagrams.net" modified="2024-05-10T18:12:10.017Z" agent="Mozilla/5.0 (Macintosh; Intel Mac OS X 10_15_7) AppleWebKit/605.1.15 (KHTML, like Gecko) Version/17.4.1 Safari/605.1.15" etag="8YTkh1qbKAS5qsREpiw-" version="24.3.1" type="github">
  <diagram name="Page-1" id="2k4kQFXLUoXcd1VmAueP">
    <mxGraphModel dx="967" dy="798" grid="1" gridSize="10" guides="1" tooltips="1" connect="1" arrows="1" fold="1" page="1" pageScale="1" pageWidth="850" pageHeight="1100" math="0" shadow="0">
      <root>
        <mxCell id="0" />
        <mxCell id="1" parent="0" />
        <mxCell id="n44Yq7HVJipE2xqLqNvO-1" value="&lt;font style=&quot;font-size: 18px;&quot; color=&quot;#b18cfe&quot;&gt;FeedViewController&lt;/font&gt;" style="rounded=0;whiteSpace=wrap;html=1;fillColor=none;strokeColor=#CC99FF;strokeWidth=2;" vertex="1" parent="1">
          <mxGeometry x="550" y="250" width="220" height="70" as="geometry" />
        </mxCell>
        <mxCell id="n44Yq7HVJipE2xqLqNvO-2" value="&lt;font style=&quot;font-size: 18px;&quot; color=&quot;#b18cfe&quot;&gt;FeedViewController&lt;/font&gt;" style="rounded=0;whiteSpace=wrap;html=1;fillColor=none;strokeColor=#CC99FF;strokeWidth=2;" vertex="1" parent="1">
          <mxGeometry x="10" y="50" width="220" height="70" as="geometry" />
        </mxCell>
        <mxCell id="n44Yq7HVJipE2xqLqNvO-3" value="&lt;font color=&quot;#009900&quot; style=&quot;font-size: 18px;&quot;&gt;UIViewController&lt;/font&gt;" style="rounded=0;whiteSpace=wrap;html=1;fillColor=none;strokeColor=#009900;strokeWidth=2;" vertex="1" parent="1">
          <mxGeometry x="550" y="400" width="220" height="70" as="geometry" />
        </mxCell>
        <mxCell id="n44Yq7HVJipE2xqLqNvO-4" value="&lt;font color=&quot;#009900&quot; style=&quot;font-size: 18px;&quot;&gt;UIViewController&lt;/font&gt;" style="rounded=0;whiteSpace=wrap;html=1;fillColor=none;strokeColor=#009900;strokeWidth=2;" vertex="1" parent="1">
          <mxGeometry x="10" y="214" width="220" height="70" as="geometry" />
        </mxCell>
        <mxCell id="n44Yq7HVJipE2xqLqNvO-7" value="" style="endArrow=block;endSize=16;endFill=0;html=1;rounded=0;strokeColor=#cc99ff;strokeWidth=3;exitX=0.5;exitY=1;exitDx=0;exitDy=0;entryX=0.5;entryY=0;entryDx=0;entryDy=0;" edge="1" parent="1" source="n44Yq7HVJipE2xqLqNvO-1" target="n44Yq7HVJipE2xqLqNvO-3">
          <mxGeometry width="160" relative="1" as="geometry">
            <mxPoint x="630" y="420" as="sourcePoint" />
            <mxPoint x="790" y="420" as="targetPoint" />
          </mxGeometry>
        </mxCell>
        <mxCell id="n44Yq7HVJipE2xqLqNvO-9" value="" style="endArrow=block;endSize=16;endFill=0;html=1;rounded=0;strokeColor=#cc99ff;strokeWidth=3;" edge="1" parent="1">
          <mxGeometry width="160" relative="1" as="geometry">
            <mxPoint x="260" y="60" as="sourcePoint" />
            <mxPoint x="420" y="60" as="targetPoint" />
          </mxGeometry>
        </mxCell>
        <mxCell id="n44Yq7HVJipE2xqLqNvO-10" value="" style="endArrow=block;endSize=16;endFill=0;html=1;rounded=0;strokeColor=#cc99ff;strokeWidth=3;dashed=1;" edge="1" parent="1">
          <mxGeometry width="160" relative="1" as="geometry">
            <mxPoint x="260" y="90" as="sourcePoint" />
            <mxPoint x="420" y="90" as="targetPoint" />
          </mxGeometry>
        </mxCell>
        <mxCell id="n44Yq7HVJipE2xqLqNvO-11" value="" style="endArrow=classicThin;endSize=16;endFill=1;html=1;rounded=0;strokeColor=#cc99ff;strokeWidth=2;" edge="1" parent="1">
          <mxGeometry width="160" relative="1" as="geometry">
            <mxPoint x="260" y="120" as="sourcePoint" />
            <mxPoint x="420" y="120" as="targetPoint" />
          </mxGeometry>
        </mxCell>
        <mxCell id="n44Yq7HVJipE2xqLqNvO-12" value="" style="endArrow=classicThin;endSize=16;endFill=1;html=1;rounded=0;strokeColor=#cc99ff;strokeWidth=2;dashed=1;" edge="1" parent="1">
          <mxGeometry width="160" relative="1" as="geometry">
            <mxPoint x="260" y="150" as="sourcePoint" />
            <mxPoint x="420" y="150" as="targetPoint" />
          </mxGeometry>
        </mxCell>
        <mxCell id="n44Yq7HVJipE2xqLqNvO-17" value="" style="endArrow=block;endSize=16;endFill=0;html=1;rounded=0;strokeColor=#009900;strokeWidth=3;" edge="1" parent="1">
          <mxGeometry width="160" relative="1" as="geometry">
            <mxPoint x="260" y="214" as="sourcePoint" />
            <mxPoint x="420" y="214" as="targetPoint" />
          </mxGeometry>
        </mxCell>
        <mxCell id="n44Yq7HVJipE2xqLqNvO-18" value="" style="endArrow=block;endSize=16;endFill=0;html=1;rounded=0;strokeColor=#009900;strokeWidth=3;dashed=1;" edge="1" parent="1">
          <mxGeometry width="160" relative="1" as="geometry">
            <mxPoint x="260" y="244" as="sourcePoint" />
            <mxPoint x="420" y="244" as="targetPoint" />
          </mxGeometry>
        </mxCell>
        <mxCell id="n44Yq7HVJipE2xqLqNvO-19" value="" style="endArrow=classicThin;endSize=16;endFill=1;html=1;rounded=0;strokeColor=#009900;strokeWidth=2;" edge="1" parent="1">
          <mxGeometry width="160" relative="1" as="geometry">
            <mxPoint x="260" y="274" as="sourcePoint" />
            <mxPoint x="420" y="274" as="targetPoint" />
          </mxGeometry>
        </mxCell>
        <mxCell id="n44Yq7HVJipE2xqLqNvO-20" value="" style="endArrow=classicThin;endSize=16;endFill=1;html=1;rounded=0;strokeColor=#009900;strokeWidth=2;dashed=1;" edge="1" parent="1">
          <mxGeometry width="160" relative="1" as="geometry">
            <mxPoint x="260" y="304" as="sourcePoint" />
            <mxPoint x="420" y="304" as="targetPoint" />
          </mxGeometry>
        </mxCell>
        <mxCell id="n44Yq7HVJipE2xqLqNvO-21" value="&lt;font style=&quot;font-size: 18px;&quot;&gt;UIViewController&lt;/font&gt;" style="rounded=0;whiteSpace=wrap;html=1;fillColor=none;strokeColor=#FF3333;strokeWidth=2;fontColor=#ff3333;" vertex="1" parent="1">
          <mxGeometry x="15" y="374" width="220" height="70" as="geometry" />
        </mxCell>
        <mxCell id="n44Yq7HVJipE2xqLqNvO-22" value="" style="endArrow=block;endSize=16;endFill=0;html=1;rounded=0;strokeColor=#FF3333;strokeWidth=3;" edge="1" parent="1">
          <mxGeometry width="160" relative="1" as="geometry">
            <mxPoint x="265" y="374" as="sourcePoint" />
            <mxPoint x="425" y="374" as="targetPoint" />
          </mxGeometry>
        </mxCell>
        <mxCell id="n44Yq7HVJipE2xqLqNvO-23" value="" style="endArrow=block;endSize=16;endFill=0;html=1;rounded=0;strokeColor=#FF3333;strokeWidth=3;dashed=1;" edge="1" parent="1">
          <mxGeometry width="160" relative="1" as="geometry">
            <mxPoint x="265" y="404" as="sourcePoint" />
            <mxPoint x="425" y="404" as="targetPoint" />
          </mxGeometry>
        </mxCell>
        <mxCell id="n44Yq7HVJipE2xqLqNvO-24" value="" style="endArrow=classicThin;endSize=16;endFill=1;html=1;rounded=0;strokeColor=#FF3333;strokeWidth=2;" edge="1" parent="1">
          <mxGeometry width="160" relative="1" as="geometry">
            <mxPoint x="265" y="434" as="sourcePoint" />
            <mxPoint x="425" y="434" as="targetPoint" />
          </mxGeometry>
        </mxCell>
        <mxCell id="n44Yq7HVJipE2xqLqNvO-25" value="" style="endArrow=classicThin;endSize=16;endFill=1;html=1;rounded=0;strokeColor=#FF3333;strokeWidth=2;dashed=1;" edge="1" parent="1">
          <mxGeometry width="160" relative="1" as="geometry">
            <mxPoint x="265" y="464" as="sourcePoint" />
            <mxPoint x="425" y="464" as="targetPoint" />
          </mxGeometry>
        </mxCell>
        <mxCell id="n44Yq7HVJipE2xqLqNvO-26" value="&lt;font style=&quot;font-size: 18px;&quot;&gt;UIViewController&lt;/font&gt;" style="rounded=0;whiteSpace=wrap;html=1;fillColor=none;strokeColor=#3399FF;strokeWidth=2;fontColor=#3399FF;" vertex="1" parent="1">
          <mxGeometry x="15" y="520" width="220" height="70" as="geometry" />
        </mxCell>
        <mxCell id="n44Yq7HVJipE2xqLqNvO-27" value="" style="endArrow=block;endSize=16;endFill=0;html=1;rounded=0;strokeColor=#3399FF;strokeWidth=3;fontColor=#3399FF;" edge="1" parent="1">
          <mxGeometry width="160" relative="1" as="geometry">
            <mxPoint x="265" y="520" as="sourcePoint" />
            <mxPoint x="425" y="520" as="targetPoint" />
          </mxGeometry>
        </mxCell>
        <mxCell id="n44Yq7HVJipE2xqLqNvO-28" value="" style="endArrow=block;endSize=16;endFill=0;html=1;rounded=0;strokeColor=#3399FF;strokeWidth=3;dashed=1;fontColor=#3399FF;" edge="1" parent="1">
          <mxGeometry width="160" relative="1" as="geometry">
            <mxPoint x="265" y="550" as="sourcePoint" />
            <mxPoint x="425" y="550" as="targetPoint" />
          </mxGeometry>
        </mxCell>
        <mxCell id="n44Yq7HVJipE2xqLqNvO-29" value="" style="endArrow=classicThin;endSize=16;endFill=1;html=1;rounded=0;strokeColor=#3399FF;strokeWidth=2;fontColor=#3399FF;" edge="1" parent="1">
          <mxGeometry width="160" relative="1" as="geometry">
            <mxPoint x="265" y="580" as="sourcePoint" />
            <mxPoint x="425" y="580" as="targetPoint" />
          </mxGeometry>
        </mxCell>
        <mxCell id="n44Yq7HVJipE2xqLqNvO-30" value="" style="endArrow=classicThin;endSize=16;endFill=1;html=1;rounded=0;strokeColor=#3399FF;strokeWidth=2;dashed=1;fontColor=#3399FF;" edge="1" parent="1">
          <mxGeometry width="160" relative="1" as="geometry">
            <mxPoint x="265" y="610" as="sourcePoint" />
            <mxPoint x="425" y="610" as="targetPoint" />
          </mxGeometry>
        </mxCell>
        <mxCell id="n44Yq7HVJipE2xqLqNvO-31" value="&lt;font style=&quot;font-size: 18px;&quot;&gt;UIViewController&lt;/font&gt;" style="rounded=0;whiteSpace=wrap;html=1;fillColor=none;strokeColor=#FF00FF;strokeWidth=2;fontColor=#ff3333;" vertex="1" parent="1">
          <mxGeometry x="15" y="660" width="220" height="70" as="geometry" />
        </mxCell>
        <mxCell id="n44Yq7HVJipE2xqLqNvO-32" value="" style="endArrow=block;endSize=16;endFill=0;html=1;rounded=0;strokeColor=#FF00FF;strokeWidth=3;" edge="1" parent="1">
          <mxGeometry width="160" relative="1" as="geometry">
            <mxPoint x="265" y="660" as="sourcePoint" />
            <mxPoint x="425" y="660" as="targetPoint" />
          </mxGeometry>
        </mxCell>
        <mxCell id="n44Yq7HVJipE2xqLqNvO-33" value="" style="endArrow=block;endSize=16;endFill=0;html=1;rounded=0;strokeColor=#FF00FF;strokeWidth=3;dashed=1;" edge="1" parent="1">
          <mxGeometry width="160" relative="1" as="geometry">
            <mxPoint x="265" y="690" as="sourcePoint" />
            <mxPoint x="425" y="690" as="targetPoint" />
          </mxGeometry>
        </mxCell>
        <mxCell id="n44Yq7HVJipE2xqLqNvO-34" value="" style="endArrow=classicThin;endSize=16;endFill=1;html=1;rounded=0;strokeColor=#FF00FF;strokeWidth=2;" edge="1" parent="1">
          <mxGeometry width="160" relative="1" as="geometry">
            <mxPoint x="265" y="720" as="sourcePoint" />
            <mxPoint x="425" y="720" as="targetPoint" />
          </mxGeometry>
        </mxCell>
        <mxCell id="n44Yq7HVJipE2xqLqNvO-35" value="" style="endArrow=classicThin;endSize=16;endFill=1;html=1;rounded=0;strokeColor=#FF00FF;strokeWidth=2;dashed=1;" edge="1" parent="1">
          <mxGeometry width="160" relative="1" as="geometry">
            <mxPoint x="265" y="750" as="sourcePoint" />
            <mxPoint x="425" y="750" as="targetPoint" />
          </mxGeometry>
        </mxCell>
      </root>
    </mxGraphModel>
  </diagram>
</mxfile>
